# xmcd
#
# Track frame offsets:
#	150
#	14712
#	27837
#	56130
#	69684
#	82885
#	103735
#	116759
#	134636
#	147665
#	188735
#	204710
#	223607
#	237032
#	252824
#	277259
#	289983
#	300726
#	314148
#	328977
#
# Disc length: 4712 seconds
#
# Revision: 0
# Processed by: cddbd v1.5.2PL0 Copyright (c) Steve Scherf et al.
# Submitted via: audiograbber 1.83.01
#
DISCID=4d126614
DTITLE=Fleetwood Mac - The Best Of Peter Green's Fleetwood Mac
DYEAR=2002
DGENRE=Rock
TTITLE0=Albatross  1969
TTITLE1=Black Magic Woman  1968
TTITLE2=Need Your Love So Bad  (USA Version)  1968
TTITLE3=My Heart Beat Like A Hammer  1968
TTITLE4=Rollin' Man  1968
TTITLE5=The Green Manalishi (w. The Two Pronged Crown)  1970
TTITLE6=Man Of The World  1969
TTITLE7=Something Inside of Me  1969
TTITLE8=Looking for Somebody  1968
TTITLE9=Oh well - Part 1 and Part 2  1969
TTITLE10=Rattlesnake Shake  1969
TTITLE11=Merry Go Round  1968
TTITLE12=I Loved Another Woman  1968
TTITLE13=Need Your Love Tonight  1968
TTITLE14=Worried Dream  1968
TTITLE15=Dragonfly  1971
TTITLE16=Stop Messin' Around  1969
TTITLE17=Shake Your Moneymaker  1968
TTITLE18=I'd Rather Go Blind (Chicken Shack) 1969
TTITLE19=Albatross  (Chris Coco ft. Peter Green)  2002
EXTD=YEAR: 2002
EXTT0=
EXTT1=
EXTT2=
EXTT3=
EXTT4=
EXTT5=
EXTT6=
EXTT7=
EXTT8=
EXTT9=
EXTT10=
EXTT11=
EXTT12=
EXTT13=
EXTT14=
EXTT15=
EXTT16=
EXTT17=
EXTT18=
EXTT19=
PLAYORDER=
